C:\Users\u0150099\Documents\master_thesis\ReferenceData\reference_data\IK\subject1_Maarten_withMTP_scaled//IK_average.mot
version=1
nRows=10
nColumns=32
inDegrees=no
endheader
                time	         pelvis_tilt	         pelvis_list	     pelvis_rotation	           pelvis_tx	           pelvis_ty	           pelvis_tz	       hip_flexion_l	     hip_adduction_l	      hip_rotation_l	       hip_flexion_r	     hip_adduction_r	      hip_rotation_r	        knee_angle_l	        knee_angle_r	       ankle_angle_l	       ankle_angle_r	    subtalar_angle_l	    subtalar_angle_r	         mtp_angle_l	         mtp_angle_r	    lumbar_extension	      lumbar_bending	     lumbar_rotation	          arm_flex_l	           arm_add_l	           arm_rot_l	          arm_flex_r	           arm_add_r	           arm_rot_r	        elbow_flex_l	        elbow_flex_r	
          0.25952020	         -0.01455229	         -0.08404793	          0.01350905	          0.34227148	          0.92056535	          0.00323127	          0.28851766	         -0.05237385	          0.03634188	          0.16833188	          0.15849836	         -0.05432211	         -1.11932799	         -0.29917938	         -0.05451784	          0.12566389	         -0.13127664	          0.00896414	          0.40965126	          0.07712611	         -0.07785730	          0.10163601	         -0.01543983	         -0.06184233	         -0.27946648	          0.20216373	         -0.05489784	         -0.29687965	          0.24962731	          0.42619953	          0.40185664	
          0.26990101	         -0.01490325	         -0.07785819	          0.01303329	          0.35452515	          0.92195362	          0.00358018	          0.31523801	         -0.04533403	          0.03397826	          0.14607511	          0.15309180	         -0.04895876	         -1.10524499	         -0.28518288	         -0.03301030	          0.13306307	         -0.12781337	          0.01084508	          0.40077808	          0.07287232	         -0.07894642	          0.09381281	         -0.00787634	         -0.06533733	         -0.27869120	          0.20462862	         -0.04906949	         -0.29969459	          0.25040793	          0.41478380	          0.41588290	
          0.28028182	         -0.01505543	         -0.07164300	          0.01158516	          0.36680542	          0.92315873	          0.00399478	          0.33943611	         -0.03891199	          0.02979541	          0.12352952	          0.14780343	         -0.04256692	         -1.08430544	         -0.27098617	         -0.01404598	          0.13983592	         -0.12518886	          0.01186389	          0.39205712	          0.06921891	         -0.08018479	          0.08588267	          0.00017276	         -0.06950570	         -0.27794942	          0.20531183	         -0.04309021	         -0.30274446	          0.25112516	          0.40414886	          0.43023533	
          0.29066263	         -0.01492356	         -0.06557483	          0.00933232	          0.37911376	          0.92415870	          0.00445668	          0.36099608	         -0.03323553	          0.02412773	          0.10061689	          0.14267496	         -0.03575744	         -1.05677220	         -0.25661171	          0.00205318	          0.14616669	         -0.12412878	          0.01259963	          0.38329694	          0.06614480	         -0.08167453	          0.07807812	          0.00855845	         -0.07416442	         -0.27719891	          0.20448367	         -0.03695686	         -0.30604337	          0.25171534	          0.39408294	          0.44486596	
          0.30104343	         -0.01441130	         -0.05979844	          0.00645723	          0.39145279	          0.92494015	          0.00494538	          0.37981376	         -0.02835840	          0.01733696	          0.07722887	          0.13773777	         -0.02905485	         -1.02293230	         -0.24206118	          0.01513897	          0.15221854	         -0.12503262	          0.01357177	          0.37429191	          0.06356981	         -0.08353225	          0.07059826	          0.01713123	         -0.07912788	         -0.27639735	          0.20244286	         -0.03067007	         -0.30958970	          0.25213427	          0.38438515	          0.45970550	
          0.31142424	         -0.01342863	         -0.05443417	          0.00313138	          0.40382715	          0.92549406	          0.00544067	          0.39578240	         -0.02428477	          0.00976681	          0.05326125	          0.13302150	         -0.02286508	         -0.98303135	         -0.22734370	          0.02518214	          0.15812341	         -0.12799883	          0.01520302	          0.36488014	          0.06138869	         -0.08586823	          0.06360912	          0.02575096	         -0.08422731	         -0.27550344	          0.19947661	         -0.02423653	         -0.31336784	          0.25235016	          0.37488055	          0.47467221	
          0.32180505	         -0.01192433	         -0.04958524	         -0.00048960	          0.41624207	          0.92581540	          0.00592441	          0.40886717	         -0.02098988	          0.00172958	          0.02866629	          0.12857086	         -0.01744281	         -0.93738963	         -0.21250306	          0.03230593	          0.16397408	         -0.13275384	          0.01775519	          0.35497893	          0.05949140	         -0.08875073	          0.05725049	          0.03428984	         -0.08933060	         -0.27448395	          0.19584739	         -0.01767046	         -0.31734715	          0.25232712	          0.36545457	          0.48967402	
          0.33218586	         -0.00991114	         -0.04533639	         -0.00427737	          0.42870303	          0.92590242	          0.00638164	          0.41913853	         -0.01843359	         -0.00651832	          0.00348770	          0.12444399	         -0.01289119	         -0.88641829	         -0.19762993	          0.03677977	          0.16981580	         -0.13870558	          0.02131475	          0.34467812	          0.05780186	         -0.09217546	          0.05163338	          0.04264115	         -0.09435763	         -0.27331690	          0.19176562	         -0.01099597	         -0.32148488	          0.25203610	          0.35607323	          0.50460443	
          0.34256667	         -0.00745951	         -0.04176215	         -0.00813415	          0.44121550	          0.92575269	          0.00680089	          0.42674848	         -0.01658097	         -0.01478595	         -0.02214254	          0.12071306	         -0.00919148	         -0.83058705	         -0.18286549	          0.03897062	          0.17565509	         -0.14499440	          0.02581896	          0.33419322	          0.05628679	         -0.09607116	          0.04685067	          0.05072023	         -0.09926717	         -0.27198825	          0.18740086	         -0.00424222	         -0.32573152	          0.25146176	          0.34675313	          0.51933863	
          0.35294747	         -0.00468291	         -0.03892112	         -0.01198786	          0.45378460	          0.92536513	          0.00717354	          0.43192752	         -0.01539825	         -0.02294734	         -0.04802370	          0.11745090	         -0.00623664	         -0.77047147	         -0.16839377	          0.03933812	          0.18146956	         -0.15057375	          0.03109537	          0.32378295	          0.05495056	         -0.10031569	          0.04297178	          0.05846412	         -0.10403878	         -0.27048995	          0.18290430	          0.00255694	         -0.33003414	          0.25060964	          0.33752825	          0.53374052	
